PathFileType	4	(X/Y/Z)	C:\Users\°ÂÌØÂü\Desktop\20210112\bx_y_5_901-Unnamed.trc
DataRate	CameraRate	NumFrames	NumMarkers	Units	OrigDataRate	OrigDataStartFrame	OrigNumFrames
50.00	50.00	       4	0	mm	50.00	396	       527
Frame#	Time	
		

396	7.900	-570.71796	89.66003	1420.16187	-630.68317	-81.93554	1549.18774	-720.51794	-60.76358	708.61804	-713.94202	266.52118	752.03748	-613.37323	201.68118	1067.78491	-665.48376	268.24423	878.81927	-629.48120	-25.43727	1052.27368	-675.70514	174.39035	158.70110	-735.76086	-37.65156	616.61896	-742.78418	244.65482	640.20624	-694.91870	6.18062	524.38672	-826.17053	89.77785	1047.40002	-711.76862	137.17145	575.00238	-746.40552	241.20262	577.16302	-693.54486	198.99760	535.33636	-786.56940	252.73123	503.50632	-640.59955	271.63251	1544.66187	-666.78918	-70.79218	159.15657	-719.04382	69.29050	576.15985	-624.86737	-81.27798	157.97034	-772.19611	224.72987	204.51991	-882.68530	296.02042	144.53561	-676.17633	51.73702	163.93687	-563.03497	-40.00095	163.25984	-604.63098	17.10014	169.60899	-719.77368	71.09180	220.06361	-517.87756	-73.18372	142.60654	-595.06866	223.17747	173.54079	-665.60071	298.86594	160.69220	-628.31390	306.70541	161.79137	-561.97461	260.70062	165.79999	-528.03583	304.25760	146.54501	-661.22272	89.29543	1844.99316	-797.15692	174.55214	182.60876	-625.05939	-20.88580	805.65302	-795.62262	52.95323	173.75597	-793.22235	-40.05398	487.40796	-773.21631	-9.65774	205.10767	-876.20093	-79.02077	141.43263	-613.39594	201.18234	824.74805				-748.70801	-33.79103	568.31049							-713.28845	153.53830	217.77184	
397	7.920				-634.68164	-81.77927	1550.45044	-714.74500	-62.16331	709.43414	-709.63989	266.06140	751.82410	-608.62231	201.97290	1068.12646	-660.86884	268.15494	878.88782	-625.29822	-25.27740	1052.35205	-675.84442	174.48026	158.56105	-732.68835	-37.40795	616.73444	-739.82196	244.71307	640.06885	-692.71826	6.48912	524.14935	-821.66425	90.00624	1046.54211	-709.53802	137.19850	574.45715	-743.75189	241.00362	577.10455	-691.18182	198.83006	535.43195	-784.08392	252.88184	504.06189	-643.79321	272.14523	1545.68469	-666.77844	-70.75666	159.31868	-716.03394	69.47034	576.32690	-624.93976	-81.08456	157.95244	-772.00616	224.50511	204.42342	-882.59979	295.94046	144.53699	-676.06146	51.75800	163.64749	-562.80212	-40.22424	163.21835	-604.57672	17.16773	169.55830	-719.12006	71.39872	219.73886	-517.87756	-73.18372	142.60654	-594.85803	222.84622	173.55640	-665.52234	298.70776	160.90146	-628.33240	306.99847	162.06517	-561.85956	260.76755	165.86430	-528.12280	304.28763	146.42749	-666.40894	88.77670	1846.16870	-797.11609	174.77937	182.59663	-621.20056	-20.21087	805.55377	-795.42322	53.15149	174.00079	-791.34064	-39.96576	487.83545	-773.04694	-9.13933	205.38689	-876.20093	-79.02077	141.43263	-609.21375	200.79987	824.45435				-746.55157	-33.78311	568.76630							-713.31683	153.42563	217.41209	
398	7.940	-574.27295	89.70773	1423.92029	-638.49329	-81.79392	1550.99438	-711.61133	-60.71880	709.26001	-706.58954	266.11606	752.01794	-604.61316	202.09967	1068.75793	-656.74200	268.08960	878.36023	-620.94305	-26.35104	1052.75977	-675.71570	174.43590	158.49385	-730.30646	-37.65223	617.02637	-736.70825	244.45480	640.26459	-690.72705	6.73617	524.07550	-817.43469	90.02153	1045.70264				-741.21033	240.80653	577.23157	-688.68311	198.32570	535.14117	-782.24304	252.55040	504.24524	-647.35901	272.02109	1546.26184	-666.92847	-70.88519	159.45525	-714.16595	69.64262	576.89374	-624.94659	-80.95241	157.92734	-771.86414	224.33453	204.48032	-882.48102	295.99747	144.62379	-675.96490	51.60142	162.97319	-562.58563	-40.27356	163.26964	-604.43317	17.17325	169.32086	-718.84161	71.59455	219.33371	-517.73322	-73.05933	142.72797	-594.75641	222.97263	173.48514	-665.47504	298.55093	161.02214	-628.09381	306.64639	162.20078	-561.65424	260.78061	165.90569	-528.08600	304.15735	146.47820	-671.58234	88.22832	1847.03308	-796.96039	174.69383	182.54759	-617.34222	-20.17966	805.33826	-795.39978	53.50054	174.27060	-789.66705	-39.49201	487.79135	-772.39148	-8.79870	205.39664	-875.96442	-79.11864	140.93123	-605.60669	200.50092	824.22418	-707.01849	136.76244	574.45093	-743.92590	-33.65759	568.85693							-713.18475	153.14278	217.55534	
399	7.960	-575.37036	90.06382	1425.99927	-642.30414	-81.28097	1551.77917	-708.25934	-60.20794	709.15546	-702.83813	266.02380	751.64404	-600.34729	201.68642	1067.88281	-653.40259	266.76974	877.71350	-617.27502	-25.95238	1052.62231	-675.69342	174.36087	157.85175	-727.57404	-37.37450	617.08575	-733.64453	244.62022	640.43896	-689.12250	7.00490	523.75696	-813.71863	90.26548	1045.18579				-738.90424	240.56468	577.22437	-686.62122	198.50551	534.69318	-780.07214	252.31796	504.72702	-650.44495	272.83075	1546.93872	-666.50525	-70.37086	159.17094	-712.33557	70.31064	576.81946	-624.85565	-80.68210	157.67464	-771.54578	224.33911	204.72736	-882.39105	295.99826	144.61118	-675.97449	51.81848	162.95984	-562.24146	-40.43335	162.93263	-604.38751	17.13359	169.31870	-718.70941	72.27825	219.37407	-517.77924	-72.96207	142.83391	-594.48499	222.66698	173.38101	-665.47504	298.55093	161.02214	-628.08093	306.61566	162.03015	-561.44586	260.89090	165.70970	-528.16980	304.08307	146.45369	-676.45477	87.70259	1847.72791	-796.71082	174.82268	182.60168	-613.66949	-20.05687	804.88824	-795.12494	53.77359	174.07231	-788.00183	-39.59728	488.29486	-771.98981	-8.46272	205.41711	-875.64880	-79.04969	141.18465	-602.06073	199.86911	823.93799	-703.91907	136.99019	574.61963	-741.94196	-33.17851	568.88464							-713.07214	153.27748	217.54205	
